<svg width="615" height="801" viewBox="0 0 615 801" fill="none" xmlns="http://www.w3.org/2000/svg">
<path fill-rule="evenodd" clip-rule="evenodd" d="M472.404 166.627C487.759 147.678 495.437 125.787 495.437 100.957C495.437 71.225 486.126 47.0477 467.503 28.4247C449.206 9.47489 424.866 0 394.481 0C367.036 0 340.572 7.51457 315.088 22.5437C289.93 37.2461 266.08 57.6661 243.536 83.8038H241.576V12.7421L234.224 5.39089L0 18.133V53.9089C10.7818 54.889 20.5834 56.686 29.4048 59.2997C38.553 61.9135 46.0676 65.1807 51.9485 69.1013C59.7898 74.6556 66.4876 82.1702 72.0418 91.6451C77.5961 100.793 80.3732 111.248 80.3732 123.01V139.401H80.3224V598.116C80.3224 645.49 79.6689 683.227 78.362 711.325C77.3819 739.096 76.075 764.907 74.4414 788.757L103.356 800.029L173.438 736.319C178.665 740.239 185.69 745.304 194.511 751.511C203.659 757.392 215.748 763.437 230.777 769.644C245.153 775.525 262.632 780.426 283.216 784.347C304.126 788.594 328.957 790.718 357.708 790.718C432.2 790.718 493.624 766.54 541.978 718.186C590.66 669.831 615 608.898 615 535.386C615 455.666 595.234 392.446 555.701 345.725C516.167 299.004 462.095 275.643 393.484 275.643C368.326 275.643 343.169 281.034 318.011 291.816C292.854 302.597 268.35 319.587 244.499 342.784H241.576V133.302C254.318 116.966 269.02 103.897 285.683 94.0955C302.346 84.2938 318.192 79.0663 333.221 78.4129C331.914 83.9671 330.444 90.0115 328.81 96.5459C327.176 102.754 326.36 111.575 326.36 123.01C326.36 146.534 334.528 164.34 350.864 176.429C367.526 188.518 387.783 194.562 411.634 194.562C436.791 194.562 457.048 185.25 472.404 166.627ZM241.559 408.237H241.576V402.356V388.831C252.027 376.099 263.783 366.468 276.845 359.937C289.913 353.402 306.413 350.135 326.343 350.135C347.58 350.135 365.386 355.526 379.762 366.308C394.137 376.763 405.736 390.812 414.557 408.455C423.379 426.098 429.586 446.518 433.18 469.715C437.101 492.585 439.061 516.436 439.061 541.267C439.061 607.918 429.423 659.539 410.147 696.132C390.87 732.398 364.569 750.531 331.244 750.531C315.234 750.531 302.819 748.407 293.997 744.16C285.176 739.586 276.845 733.052 269.003 724.557C263.449 718.676 257.895 710.508 252.341 700.053C247.113 689.271 243.519 680.613 241.559 674.078V408.237Z" fill="#1B1B1B"/>
</svg>
